<?xml version="1.0" encoding="UTF-8"?>
<svg id="Layer_2" xmlns="http://www.w3.org/2000/svg" xmlns:xlink="http://www.w3.org/1999/xlink" viewBox="0 0 1029.46 300.17">
  <defs>
    <style>
      .cls-1 {
        fill: url(#New_Gradient_Swatch);
      }

      .cls-2 {
        fill: url(#New_Gradient_Swatch-4);
      }

      .cls-3 {
        fill: url(#New_Gradient_Swatch-3);
      }

      .cls-4 {
        fill: url(#New_Gradient_Swatch-2);
      }
    </style>
    <linearGradient id="New_Gradient_Swatch" data-name="New Gradient Swatch" x1="127.29" y1="25.23" x2="127.29" y2="300.17" gradientUnits="userSpaceOnUse">
      <stop offset="0" stop-color="#6c59fe"/>
      <stop offset=".18" stop-color="#6500fe"/>
      <stop offset=".84" stop-color="#8d36ff"/>
      <stop offset="1" stop-color="#693acf"/>
    </linearGradient>
    <linearGradient id="New_Gradient_Swatch-2" data-name="New Gradient Swatch" x1="476.24" y1="0" x2="476.24" y2="300.17" xlink:href="#New_Gradient_Swatch"/>
    <linearGradient id="New_Gradient_Swatch-3" data-name="New Gradient Swatch" x1="855.57" y1="110.02" x2="855.57" y2="172.28" xlink:href="#New_Gradient_Swatch"/>
    <linearGradient id="New_Gradient_Swatch-4" data-name="New Gradient Swatch" x1="883.53" y1="49.91" x2="883.53" y2="277.25" xlink:href="#New_Gradient_Swatch"/>
  </defs>
  <g id="Layer_1-2" data-name="Layer_1">
    <g>
      <path class="cls-1" d="M244.5,208.43c-10.65-7.41-25.3-4.79-32.71,5.87-16.94,24.34-44.72,38.87-74.32,38.87-49.88,0-90.47-40.58-90.47-90.47s40.58-90.47,90.47-90.47c21.75,0,42.53,7.85,58.73,21.67-18.12,12.59-46.08,31.69-72.17,49.33-10.75,7.27-13.57,21.88-6.3,32.63,7.27,10.75,21.88,13.57,32.63,6.3.23-.16,23.7-16.03,46.91-31.92,13.67-9.36,24.59-16.91,32.46-22.43,4.84-3.39,8.47-5.98,11.09-7.91,5.42-3.98,11.56-8.49,13.32-17.95,1.15-6.18-.23-12.6-3.83-17.76-25.72-36.92-67.91-58.96-112.85-58.96C61.67,25.23,0,86.9,0,162.7s61.67,137.47,137.47,137.47c44.98,0,87.18-22.07,112.9-59.02,7.41-10.65,4.79-25.3-5.87-32.71Z"/>
      <path class="cls-4" d="M563.87,25.23c-7.4,0-14.67.6-21.76,1.73,1.29-8.73-2.41-17.83-10.25-23.04-10.81-7.18-25.4-4.23-32.57,6.58l-148.44,223.66-56.62-85.32c-7.18-10.81-21.76-13.76-32.57-6.58-10.81,7.18-13.76,21.76-6.59,32.58l76.07,114.62c.31.49.65.96,1,1.43.01.02.03.04.05.06.27.35.55.69.83,1.03.05.06.1.12.15.17.27.31.55.61.83.9.05.05.09.1.14.15.3.3.61.6.93.89.18.16.36.31.54.47.14.12.28.24.42.36.22.18.45.35.67.52.11.08.21.16.32.24.25.18.5.36.76.53.03.02.05.04.08.05.04.02.07.04.11.07.41.27.83.53,1.25.77.1.06.2.12.31.17.38.21.76.4,1.14.59.13.06.26.13.39.19.39.18.79.34,1.19.5.31.12.62.23.93.34.25.09.51.18.76.26.29.09.59.17.89.25.2.05.4.11.6.15.3.07.61.14.91.19.2.04.41.08.61.11.29.05.59.1.88.13.24.03.48.05.72.08.26.03.52.05.78.07.42.03.84.04,1.25.04.08,0,.16,0,.24,0,0,0,.01,0,.02,0s.01,0,.02,0c.08,0,.16,0,.24,0,.42,0,.83-.02,1.25-.04.26-.02.52-.05.78-.07.24-.02.48-.05.72-.08.3-.04.59-.09.89-.13.2-.03.41-.07.61-.11.31-.06.61-.12.91-.2.2-.05.39-.1.59-.15.3-.08.6-.16.9-.25.25-.08.49-.16.73-.25.33-.11.67-.23,1-.36.39-.15.77-.31,1.15-.49.14-.06.27-.13.41-.2.38-.18.75-.37,1.12-.57.11-.06.22-.12.32-.18.42-.24.83-.49,1.23-.75.04-.03.08-.05.12-.07.03-.02.06-.04.08-.06.25-.17.5-.34.74-.52.11-.08.23-.17.34-.25.22-.17.44-.34.66-.51.15-.12.3-.25.44-.37.18-.15.35-.3.52-.45.32-.29.63-.59.93-.89.04-.05.09-.09.13-.14.29-.3.57-.6.84-.91.05-.06.1-.11.14-.17.29-.34.57-.68.84-1.03.01-.02.03-.04.04-.05.35-.46.69-.94,1-1.43l60.52-91.19c15.72,58.61,69.29,101.9,132.79,101.9,34.61,0,66.27-12.86,90.47-34.05v10.55c0,12.98,10.52,23.5,23.5,23.5s23.5-10.52,23.5-23.5v-113.97c0-75.8-61.67-137.47-137.47-137.47ZM563.87,253.17c-49.88,0-90.47-40.58-90.47-90.47s40.58-90.47,90.47-90.47,90.47,40.58,90.47,90.47-40.58,90.47-90.47,90.47Z"/>
      <path class="cls-3" d="M855.57,110.02c-28.09,0-50.95,22.86-50.95,50.95v11.31h101.9v-11.31c0-28.09-22.86-50.95-50.95-50.95Z"/>
      <path class="cls-2" d="M1005.96,49.91h-180c-48.72,0-88.36,39.64-88.36,88.36v115.49c0,12.98,10.52,23.5,23.5,23.5h244.86c12.98,0,23.5-10.52,23.5-23.5V73.41c0-12.98-10.52-23.5-23.5-23.5ZM936.52,232.14c0,8.28-6.72,15-15,15s-15-6.72-15-15v-29.87h-101.9v29.87c0,8.28-6.72,15-15,15s-15-6.72-15-15v-71.18c0-44.64,36.31-80.95,80.95-80.95s80.95,36.32,80.95,80.95v71.18ZM992.45,232.14c0,8.28-6.72,15-15,15s-15-6.72-15-15V96.45c0-8.28,6.72-15,15-15s15,6.72,15,15v135.69Z"/>
    </g>
  </g>
</svg>